<svg width="49" height="37" viewBox="0 0 49 37" fill="none" xmlns="http://www.w3.org/2000/svg">
<path d="M15.5 1.5L14 4H22L20.5 0L15.5 1.5Z" fill="black"/>
<path d="M2 11H46L41 32H7.00001L2 11Z" fill="black"/>
<path d="M10 12.5L12.701 6.38405C13.341 4.93491 14.7759 4 16.36 4H27.4616C29.011 4 30.4211 4.89484 31.0809 6.29681L34 12.5" stroke="black" stroke-width="3"/>
<path d="M19 5.5V11.5" stroke="black" stroke-width="3"/>
<path d="M3 32.5267C7 28.5669 12.3146 27.4196 20 29.567C27.6854 31.7145 33.5 35.0513 47.5 30.0513" stroke="white" stroke-width="8"/>
<path d="M3 33.5267C7 29.5669 12.3146 28.4196 20 30.567C27.6854 32.7145 33.5 36.0513 47.5 31.0513" stroke="black" stroke-width="3"/>
</svg>
