<?xml version="1.0" encoding="UTF-8"?>
<svg xmlns="http://www.w3.org/2000/svg" viewBox="0 0 2648.57 3001">
  <defs>
    <style>
      .cls-1 {
        stroke: #000;
      }

      .cls-1, .cls-2, .cls-3, .cls-4, .cls-5, .cls-6, .cls-7, .cls-8, .cls-9, .cls-10 {
        fill: none;
        stroke-miterlimit: 10;
      }

      .cls-2 {
        stroke: #677841;
      }

      .cls-3 {
        stroke: #8e71d5;
      }

      .cls-4 {
        stroke: #9c9ed9;
      }

      .cls-5 {
        stroke: #97ccf6;
      }

      .cls-6 {
        stroke: #edb9d1;
      }

      .cls-7 {
        stroke: #4a68d9;
      }

      .cls-8 {
        stroke: #7b403c;
      }

      .cls-9 {
        stroke: #60b177;
      }

      .cls-10 {
        stroke: #bf6360;
      }

      .cls-11 {
        fill: #e6ffd4;
      }

      .cls-11, .cls-12 {
        stroke-width: 0px;
      }

      .cls-12 {
        fill: #00235f;
      }
    </style>
  </defs>
  <g id="_图层_2" data-name="图层 2">
    <polygon class="cls-1" points="1156.98 .5 1075 143.5 1045 161.5 1009 223.5 952.5 332 882.5 441 849.5 573 849.5 635.21 837.5 743 846.5 795 837.5 879.18 819.5 931 800.5 1211 766.5 1508 751.5 1600 663.5 1596 613.5 1939 627.5 1948 621.5 1966 605.5 1974 605.5 2021.36 623.5 2063 642.56 2063 641.5 2087 706.5 2170 744.5 2183 805.5 2168 802.5 2150 851.5 2135 1000.5 2011 1121.5 1921 1353.5 1876 1358.5 1905 1535.5 1881 1535.5 1867.5 1614.5 1855 1653.5 1814 1724.5 1598 1757.5 1406 1772.5 1334 1775.5 1252 1726.5 1186 1702.5 1059 1704.5 1023 1738.5 1042 1749.5 1039 1743.5 924 1780.5 773 1905.5 587 1997.5 432 2040.5 389 2087.5 312 2195.5 181 2314.64 .5 1156.98 .5"/>
    <polygon class="cls-1" points="605.5 3000.5 634.5 2835 891.5 2626 929.5 2634 1031.5 2449 1110.5 2279 1189.5 2094 1364.5 2033 1545.5 2010 1625.5 2068 1677.5 2196 1814.5 2194 1873.5 2114 1873.5 2073.43 1825.5 2030 1824.5 1966 1812.5 1934 1816.5 1852 1873.5 1652.69 1950.5 1542 2014.5 1426 2021.5 1331 2021.5 1190.34 1992.5 1102 1999.5 937 2046.5 795 2086.5 737 2142.5 616 2295.5 392 2429.5 170 2544.27 .5 2648.07 .5 2648.07 3000.5 605.5 3000.5"/>
    <path class="cls-3" d="M998,1692.5l113,70,25-22s42-81,47-89l29-85-81-43,24-87,67-107,63-100-36.5-2.5-88.5,137.5-86.96,136-15.04,22,39,25-99,145Z"/>
    <path class="cls-5" d="M1260.5,1208l-105.73,164.69-133.27-86.69s-45-11-70-14l-89-10,32-150,180-36,11,34,175,98Z"/>
    <path class="cls-9" d="M1496.5,920l-38-21,32-57,26-48,38-70,43,18-29,52-82,145-71,130s-129,236-130.5,239.33c-1.5,3.33-1.5,16.67-1.5,16.67l-67.73-47.32,56.73-87.68,59,33"/>
    <polygon class="cls-7" points="1565.5 1068 1431.5 1305 1320.18 1243.56 1387.59 1120.08 1621.5 1251 1632.5 1251 1666.5 1273 1709.5 1196 1698.5 1139 1565.5 1068"/>
    <polyline class="cls-10" points="1321.5 1084 1322.5 1114 1311.5 1169 1302.5 1211 1286.84 1228.25 1249.5 1226 1283.5 1172 1289.5 1128 1295.5 1099 1299.5 1071 1369.5 1112 1499.5 1184 1582.69 1036.59 1626.79 953.3 1677.5 865 1709.5 804 1618.5 751 1554.5 724 1460.07 898.55 1496.5 920 1386.5 1122"/>
    <polygon class="cls-8" points="1654.5 774 1606.5 858 1538.5 973 1406.63 898.57 1501.5 734 1532.5 677 1664.5 750 1618.5 833 1675.5 862 1706.5 804 1654.5 774"/>
    <polyline class="cls-2" points="1305.5 381 1324.5 348 1253.5 309 1165.5 475 1664.5 750 1618.5 833 1675.5 862 1707.5 804"/>
    <polyline class="cls-4" points="1305.5 381 1233.5 511 1450.5 633 1543.5 469 1813.5 622 1767.5 699 1576.5 595 1531.5 678 1723.5 782 1707.5 804"/>
    <polygon class="cls-6" points="1285 1229.5 1248.5 1227 1058 1522.5 1097 1547.5 998 1692.5 1111 1762.5 1136 1740.5 1166.03 1683 1178 1681.5 1206 1719.93 1486 2394.5 1464.4 2394.5 1460.07 2417.06 1391 2412.5 1392 2313.5 1290 2310.5 1291 2211.5 1309 2168.5 1474 2173.5 1474 2199.5 1495 2201.5 1489 2315.5 1460.07 2314.56 1201 1697.5 1201 1671.5 1239 1573.5 1131 1523.5 1155 1436.5 1285 1229.5"/>
  </g>
  <g id="_图层_3" data-name="图层 3">
    <rect class="cls-11" x="1093.69" y="1170.74" width="86.15" height="43.55" transform="translate(855.04 -430.74) rotate(33.78)"/>
    <rect class="cls-12" x="1227.72" y="1232.35" width="10.98" height="13.59" transform="translate(897.25 -476.5) rotate(33.78)"/>
    <rect class="cls-12" x="1222.5" y="1245.19" width="10.98" height="3.61" transform="translate(900.73 -472.27) rotate(33.78)"/>
    <rect class="cls-12" x="1219.98" y="1235.29" width="4.72" height="8.88" transform="translate(895.75 -470.35) rotate(33.78)"/>
    <rect class="cls-12" x="1210.66" y="1251.11" width="16.01" height="11.65" transform="translate(904.69 -465.4) rotate(33.78)"/>
    <rect class="cls-11" x="1290.85" y="1003.79" width="36.37" height="66.91" transform="translate(694 -515.55) rotate(30)"/>
    <rect class="cls-11" x="1444.93" y="443.78" width="88.54" height="45.37" transform="translate(432.75 -682.11) rotate(30)"/>
  </g>
</svg>